<svg width="158" height="96" viewBox="0 0 158 96" fill="none" xmlns="http://www.w3.org/2000/svg">
<path d="M54.9091 24.5454C54.3636 19.9394 52.1515 16.3636 48.2727 13.8182C44.3939 11.2727 39.6364 9.99999 34 9.99999C29.8788 9.99999 26.2727 10.6667 23.1818 12C20.1212 13.3333 17.7273 15.1667 16 17.5C14.303 19.8333 13.4546 22.4848 13.4546 25.4545C13.4546 27.9394 14.0455 30.0757 15.2273 31.8636C16.4394 33.6212 17.9849 35.0909 19.8636 36.2727C21.7424 37.4242 23.7121 38.3788 25.7727 39.1364C27.8333 39.8636 29.7273 40.4545 31.4546 40.9091L40.9091 43.4545C43.3333 44.0909 46.0303 44.9697 49 46.0909C52 47.2121 54.8636 48.7424 57.5909 50.6818C60.3485 52.5909 62.6212 55.0454 64.4091 58.0454C66.197 61.0454 67.0909 64.7273 67.0909 69.0909C67.0909 74.1212 65.7727 78.6667 63.1364 82.7273C60.5303 86.7879 56.7121 90.0151 51.6818 92.4091C46.6818 94.803 40.6061 96 33.4546 96C26.7879 96 21.0152 94.9242 16.1364 92.7727C11.2879 90.6212 7.4697 87.6212 4.68183 83.7727C1.92425 79.9242 0.363643 75.4545 7.15256e-06 70.3636H11.6364C11.9394 73.8788 13.1212 76.7879 15.1818 79.0909C17.2727 81.3636 19.9091 83.0606 23.0909 84.1818C26.303 85.2727 29.7576 85.8182 33.4546 85.8182C37.7576 85.8182 41.6212 85.1212 45.0455 83.7273C48.4697 82.303 51.1818 80.3333 53.1818 77.8182C55.1818 75.2727 56.1818 72.303 56.1818 68.9091C56.1818 65.8182 55.3182 63.303 53.5909 61.3636C51.8636 59.4242 49.5909 57.8485 46.7727 56.6364C43.9546 55.4242 40.9091 54.3636 37.6364 53.4545L26.1818 50.1818C18.9091 48.0909 13.1515 45.1061 8.9091 41.2273C4.66667 37.3485 2.54546 32.2727 2.54546 26C2.54546 20.7879 3.95455 16.2424 6.77273 12.3636C9.62122 8.45454 13.4394 5.42424 18.2273 3.27272C23.0455 1.0909 28.4242 -7.62939e-06 34.3636 -7.62939e-06C40.3636 -7.62939e-06 45.697 1.07575 50.3636 3.22726C55.0303 5.34848 58.7273 8.25757 61.4546 11.9545C64.2121 15.6515 65.6667 19.8485 65.8182 24.5454H54.9091Z" fill="#55A2FF"/>
<path d="M85.625 94.3636V1.27272H96.8977V42.7273H146.534V1.27272H157.807V94.3636H146.534V52.7273H96.8977V94.3636H85.625Z" fill="white"/>
</svg>
